<?xml  version="1.0" encoding="UTF-8"?>
<!DOCTYPE svg PUBLIC "-//W3C//DTD SVG 1.0//EN" "http://www.w3.org/TR/2001/REC-SVG-20010904/DTD/svg10.dtd" >
<svg xmlns="http://www.w3.org/2000/svg" >
<metadata>
<version>1.0</version>
<id><![CDATA[Proxima N W01SC Black]]></id>
<vendor>Monotype Imaging Inc.</vendor>
<credits>
<name>Fonts.com WebFonts</name>
<URL>http://webfonts.fonts.com</URL>
<role>Home of the Web fonts</role>
</credits>
<license>
<URL>http://webfonts.fonts.com/Legal</URL>
</license>
<copyright><![CDATA[Copyright (c) Mark Simonson, 2005. All rights reserved.]]></copyright>
<trademark><![CDATA[Proxima Nova is a trademark of Mark Simonson.]]></trademark>
<licensee>
<name></name>
</licensee>
</metadata>
<defs >
<font horiz-adv-x="559" id="db9d8cd5-cba2-4816-a76f-2c4dc8f01a51">
<font-face font-family="" panose-1="2 0 5 6 3 0 0 2 0 4" ascent="769" descent="-231" units-per-em="1000" alphabetic="0">
</font-face>
<missing-glyph horiz-adv-x="0" />

<glyph unicode="&#xA;" />
<glyph unicode="&#xD;" horiz-adv-x="0" />
<glyph unicode=" " horiz-adv-x="255" />
<glyph unicode="!" horiz-adv-x="224" d="M187 245H40L17 550H208L187 245ZM219 94Q219 73 211 54T188 20T154 -3T113 -12Q91 -12 72 -4T39 19T16 53T7 94Q7 116 15 135T38 169T72 192T113 201Q135 201 154 193T187 170T210 136T219 94Z"  />
<glyph unicode="&quot;" horiz-adv-x="469" d="M89 339Q73 401 61 453Q56 475 51 497T42 537T36 567T34 585Q34 604 41 621T61 650T90 670T126 677Q145 677 161 670T190 651T210 621T218 585Q218 580 216 568T209 537T200 497T190 453Q178 401 163 339H89ZM307 339Q291 401 279 453Q274 475 269 497T260 537T254 567T252 585Q252 604 259 621T278 650T308 670T344 677Q363 677 379 670T408 651T428 621T435 585Q435 580 433 568T426 537T417 497T407 453Q395 401 380 339H307Z"  />
<glyph unicode="#" horiz-adv-x="537" d="M498 320H427L397 233H469L440 142H367L319 0H206L253 142H192L145 0H32L79 142H12L40 233H111L140 320H69L97 410H170L218 550H331L283 410H344L392 550H505L457 410H525L498 320ZM252 320L223 233H284L313 320H252Z"  />
<glyph unicode="$" horiz-adv-x="528" d="M207 -9Q140 -2 88 19T3 67L82 204Q97 190 118 178T163 157T214 143T267 138Q296 138 312 145T329 165Q329 177 307 182T250 192T176 207T102 236T45 289T22 377Q22 408 34 437T69 490T127 532T207 557V628H333V557Q437 540 508 483L425 358Q409 370 388 380T345 397T302 408T262 412Q234 412 223 405T211 387Q211 375 233 370T290 360T364 345T438 317T495 264T518 178Q518 102 470 55T333 -6V-74H207V-9Z"  />
<glyph unicode="%" horiz-adv-x="635" d="M303 422Q303 393 293 368T265 324T220 294T162 283Q130 283 105 294T61 323T33 367T23 422Q23 451 33 476T61 521T104 551T162 562Q194 562 220 551T264 521T293 477T303 422ZM612 130Q612 101 602 76T574 32T530 2T472 -9Q440 -9 415 2T371 31T343 75T333 130Q333 159 343 184T371 229T414 259T472 270Q504 270 530 259T574 229T602 185T612 130ZM170 0H80L463 550H554L170 0ZM202 422Q202 448 191 461T162 474Q147 474 136 461T125 422Q125 397 136 385T162 372Q179 372 190 384T202 422ZM511 130Q511 156 500 168T472 181Q455 181 444 169T433 130Q433 104 444 92T472 80Q489 80 500 92T511 130Z"  />
<glyph unicode="&amp;" horiz-adv-x="578" d="M385 0Q378 6 372 12T359 25Q327 8 292 -1T218 -10Q175 -10 138 0T74 32T30 84T14 158Q14 189 23 212T49 255T88 288T134 313Q120 342 112 369T103 422Q103 452 117 477T155 521T214 551T289 562Q324 562 355 553T411 528T449 487T463 434Q463 402 452 379T423 338T380 308T331 285Q344 267 360 250Q368 241 374 233T388 216Q414 256 428 301L554 244Q520 174 473 119Q499 91 526 63T587 0H385ZM241 110Q257 110 275 116Q264 129 254 140T236 163Q215 188 197 214Q183 195 183 173Q183 145 200 128T241 110ZM260 418Q260 397 273 369Q297 380 311 393T326 425Q326 437 317 444T297 452Q280 452 270 442T260 418Z"  />
<glyph unicode="&apos;" horiz-adv-x="252" d="M89 339Q73 401 61 453Q56 475 51 497T42 537T36 567T34 585Q34 604 41 621T61 650T90 670T126 677Q145 677 161 670T190 651T210 621T218 585Q218 580 216 568T209 537T200 497T190 453Q178 401 163 339H89Z"  />
<glyph unicode="(" horiz-adv-x="346" d="M214 -199Q174 -163 142 -113T86 -3T50 119T37 243Q37 303 49 366T85 489T141 598T214 685L328 598Q301 554 283 512T253 427T236 339T230 243Q230 193 235 148T252 60T282 -25T328 -110L214 -199Z"  />
<glyph unicode=")" horiz-adv-x="347" d="M18 -110Q45 -67 63 -25T93 60T110 148T116 243Q116 293 111 338T94 427T64 512T18 598L132 685Q172 649 204 599T260 489T296 367T309 243Q309 183 296 120T260 -3T205 -112T132 -199L18 -110Z"  />
<glyph unicode="*" horiz-adv-x="363" d="M141 343L145 448L57 392L17 462L109 510L17 558L57 628L145 572L141 677H222L217 572L305 628L346 558L253 510L346 462L305 392L217 448L222 343H141Z"  />
<glyph unicode="+" horiz-adv-x="510" d="M313 285V92H197V285H29V390H197V575H313V390H481V285H313Z"  />
<glyph unicode="&#x2c;" horiz-adv-x="281" d="M254 73Q254 7 221 -49T129 -147L56 -88Q68 -83 82 -73T108 -49T131 -21T147 8Q137 4 121 4Q85 4 60 29T34 97Q34 119 42 138T65 171T98 193T138 202Q161 202 182 194T219 169T244 128T254 73Z"  />
<glyph unicode="-" horiz-adv-x="300" d="M30 167V317H270V167H30Z"  />
<glyph unicode="." horiz-adv-x="283" d="M141 -12Q119 -12 100 -4T66 19T43 53T34 95Q34 117 42 136T65 170T99 193T141 202Q163 202 182 194T216 171T239 137T248 95Q248 73 240 54T217 20T183 -3T141 -12Z"  />
<glyph unicode="/" horiz-adv-x="362" d="M0 -20L237 687H362L125 -20H0Z"  />
<glyph unicode="0" horiz-adv-x="628" d="M610 275Q610 216 592 164T537 73T445 11T314 -12Q239 -12 184 11T92 73T37 164T18 275Q18 334 36 386T91 478T183 539T314 562Q389 562 444 540T536 478T591 387T610 275ZM407 275Q407 327 382 355T314 384Q272 384 247 356T221 275Q221 223 246 195T314 166Q356 166 381 194T407 275Z"  />
<glyph unicode="1" horiz-adv-x="483" d="M227 0V293L114 181L0 300L255 550H429V0H227Z"  />
<glyph unicode="2" horiz-adv-x="587" d="M41 0V157Q138 183 199 210T295 261T342 305T355 340Q355 361 337 372T290 384Q244 384 204 368T122 315L12 449Q41 480 75 501T146 536T220 556T293 562Q424 562 492 512T560 377Q560 344 546 312T508 253T457 206T400 176H548V0H41Z"  />
<glyph unicode="3" horiz-adv-x="605" d="M288 -129Q188 -129 115 -100T0 -25L99 113Q118 96 142 84T190 64T237 53T280 49Q330 49 353 62T377 94Q377 103 374 109T359 120T328 127T274 130Q263 130 248 130T219 130T193 129T177 128V307Q182 307 194 307T221 306T250 306T274 306Q322 306 344 314T366 339Q366 362 339 372T267 382Q224 382 182 368T104 324L9 450Q54 499 122 529T289 560Q358 560 410 547T497 509T549 450T567 375Q567 348 556 324T526 280T479 246T420 227Q448 224 476 212T526 181T563 133T578 71Q578 26 557 -10T498 -73T407 -114T288 -129Z"  />
<glyph unicode="4" horiz-adv-x="636" d="M541 0V-117H339V0H18V155L261 550H541V176H618V0H541ZM339 376L213 176H339V376Z"  />
<glyph unicode="5" horiz-adv-x="626" d="M311 -129Q221 -129 151 -105T32 -35L140 107Q175 78 220 64T309 49Q360 49 381 66T403 104Q403 127 383 143T315 159Q277 159 247 148T191 113L52 145V550H562V374H254V280Q278 303 314 317T393 331Q436 331 475 316T543 272T590 203T608 113Q608 58 588 13T530 -63T436 -112T311 -129Z"  />
<glyph unicode="6" horiz-adv-x="625" d="M336 -12Q254 -12 194 14T95 87T37 196T18 332Q18 416 43 480T115 588T226 654T368 677Q425 677 480 662T576 619L491 463Q462 483 434 491T368 499Q343 499 317 493T270 472T236 435T222 383V381Q248 414 289 431T377 449Q422 449 464 435T540 392T593 323T613 228Q613 174 592 130T534 54T446 5T336 -12ZM323 166Q361 166 384 182T408 220Q408 236 399 247T377 265T347 275T315 278Q289 278 265 273T221 251Q222 234 228 219T247 192T278 173T323 166Z"  />
<glyph unicode="7" horiz-adv-x="575" d="M120 -117L331 374H18V550H563V410L341 -117H120Z"  />
<glyph unicode="8" horiz-adv-x="630" d="M315 -12Q259 -12 206 -2T111 32T44 91T18 178Q18 232 53 276T145 344Q92 366 61 402T29 498Q29 547 54 581T120 636T212 667T315 677Q366 677 417 668T509 637T575 581T601 498Q601 439 569 403T484 344Q541 320 576 276T612 178Q612 127 587 91T519 32T424 -1T315 -12ZM315 422Q346 427 370 439T395 468Q395 488 374 500T315 513Q277 513 256 501T234 468Q234 452 259 440T315 422ZM315 152Q357 152 382 165T407 201Q407 211 399 219T377 234T347 246T315 253Q299 251 283 246T253 235T232 220T223 201Q223 179 247 166T315 152Z"  />
<glyph unicode="9" horiz-adv-x="625" d="M257 -128Q200 -128 145 -113T49 -70L134 86Q163 66 191 58T257 50Q289 50 315 59T361 83T392 120T403 165V168Q377 135 336 118T248 100Q203 100 161 114T85 157T32 226T12 321Q12 375 33 419T91 495T179 544T289 561Q371 561 431 535T530 462T588 353T607 217Q607 133 582 69T510 -39T399 -105T257 -128ZM310 271Q336 271 360 276T404 298Q401 332 378 357T301 383Q263 383 240 367T217 329Q217 313 226 302T248 284T278 274T310 271Z"  />
<glyph unicode=":" horiz-adv-x="266" d="M141 276Q119 276 100 284T66 307T43 341T34 383Q34 405 42 424T65 458T99 481T141 490Q163 490 182 482T216 459T239 425T248 383Q248 361 240 342T217 308T183 285T141 276ZM141 -12Q119 -12 100 -4T66 19T43 53T34 95Q34 117 42 136T65 170T99 193T141 202Q163 202 182 194T216 171T239 137T248 95Q248 73 240 54T217 20T183 -3T141 -12Z"  />
<glyph unicode=";" horiz-adv-x="281" d="M141 276Q119 276 100 284T66 308T43 342T34 384Q34 406 42 425T65 458T99 481T141 490Q163 490 182 482T216 459T239 425T248 384Q248 362 240 343T217 308T183 285T141 276ZM254 79Q254 13 221 -43T129 -141L56 -82Q68 -77 82 -67T108 -43T131 -15T147 14Q137 10 121 10Q85 10 60 35T34 103Q34 125 42 144T65 177T98 199T138 208Q161 208 182 200T219 175T244 134T254 79Z"  />
<glyph unicode="&lt;" horiz-adv-x="510" d="M29 270V400L481 580V455L147 334L481 215V90L29 270Z"  />
<glyph unicode="=" horiz-adv-x="510" d="M29 373V478H481V373H29ZM29 190V295H481V190H29Z"  />
<glyph unicode="&gt;" horiz-adv-x="510" d="M29 90V215L363 334L29 455V580L481 400V270L29 90Z"  />
<glyph unicode="?" horiz-adv-x="395" d="M389 439Q389 399 370 374T329 333T288 304T269 277Q269 267 271 261T279 249L135 218Q124 232 120 251T116 282Q116 311 130 329T161 359T192 379T206 395Q206 401 200 404T176 408Q150 408 126 398T84 371L0 484Q39 524 91 542T196 561Q285 561 337 527T389 439ZM308 95Q308 73 300 54T277 20T243 -3T201 -12Q179 -12 160 -4T126 19T103 53T94 95Q94 117 102 136T125 170T159 193T201 202Q223 202 242 194T276 171T299 137T308 95Z"  />
<glyph unicode="@" horiz-adv-x="783" d="M352 -70Q284 -70 226 -46T126 20T59 120T35 244Q35 323 68 394T155 520T282 606T432 638Q505 638 563 614T662 550T725 456T747 343Q747 276 725 227T670 147T597 100T524 85Q476 85 453 105T421 151L419 158Q393 120 358 103T290 85Q252 85 223 98T174 135T144 191T133 259Q133 307 151 350T199 425T268 477T350 497Q392 497 423 482T472 441L481 485H639L593 268Q592 264 591 255T590 241Q590 220 597 212T618 203Q633 203 647 212T672 239T690 283T697 343Q697 400 679 446T625 526T541 576T428 594Q358 594 295 566T184 491T108 380T80 247Q80 189 101 139T158 52T246 -6T357 -27Q405 -27 450 -13T536 27L560 -7Q513 -37 461 -53T352 -70ZM358 209Q386 209 403 222T432 250L451 345Q444 355 430 364T393 373Q370 373 352 365T321 342T302 310T295 273Q295 244 312 227T358 209Z"  />
<glyph unicode="A" horiz-adv-x="710" d="M499 0L475 78H235L211 0H-18L228 667H482L728 0H499ZM355 469L289 254H421L355 469Z"  />
<glyph unicode="B" horiz-adv-x="697" d="M54 0V667H459Q511 667 548 652T610 612T645 557T657 497Q657 434 625 395T543 344Q570 340 593 326T633 291T660 241T670 181Q670 146 658 114T622 56T560 15T473 0H54ZM412 421Q428 421 440 432T452 461Q452 478 440 488T412 499H256V421H412ZM418 168Q440 168 452 179T465 210Q465 228 453 240T418 253H256V168H418Z"  />
<glyph unicode="C" horiz-adv-x="697" d="M385 -12Q307 -12 240 13T123 83T46 192T18 333Q18 410 46 473T123 582T239 653T385 678Q451 678 500 661T587 616T648 553T688 484L514 403Q508 422 496 440T466 471T428 492T385 500Q349 500 319 487T268 452T235 399T223 333Q223 298 234 268T267 215T319 179T385 166Q407 166 428 174T466 195T495 225T514 263L688 183Q673 150 649 115T588 52T501 6T385 -12Z"  />
<glyph unicode="D" horiz-adv-x="736" d="M54 0V667H352Q431 667 498 645T614 581T690 476T718 334Q718 254 691 192T614 87T498 22T353 0H54ZM352 176Q390 176 420 189T470 223T502 273T513 334Q513 368 503 396T474 446T424 479T353 491H256V176H352Z"  />
<glyph unicode="E" horiz-adv-x="596" d="M54 0V667H560V491H256V425H553V249H256V176H560V0H54Z"  />
<glyph unicode="F" horiz-adv-x="592" d="M54 0V667H560V491H256V425H553V249H256V0H54Z"  />
<glyph unicode="G" horiz-adv-x="726" d="M385 -12Q309 -12 243 12T126 80T47 189T18 333Q18 413 47 477T126 585T242 654T385 678Q445 678 492 663T575 624T636 568T678 504L508 417Q501 432 490 447T462 474T427 493T385 500Q349 500 319 487T268 452T235 399T223 333Q223 298 234 268T267 215T319 179T385 166Q414 166 443 175T489 196V220H365V396H690V123Q634 61 559 25T385 -12Z"  />
<glyph unicode="H" horiz-adv-x="751" d="M495 0V255H256V0H54V667H256V431H495V667H697V0H495Z"  />
<glyph unicode="I" horiz-adv-x="310" d="M54 0V667H256V0H54Z"  />
<glyph unicode="J" horiz-adv-x="498" d="M186 -12Q137 -12 88 0T0 42L82 196Q99 185 120 176T168 166Q201 166 221 186T242 241V667H444V238Q444 174 426 127T373 49T292 3T186 -12Z"  />
<glyph unicode="K" horiz-adv-x="671" d="M443 0L293 235L256 185V0H54V667H256V417L431 667H678L426 357L689 0H443Z"  />
<glyph unicode="L" horiz-adv-x="536" d="M54 0V667H256V176H509V0H54Z"  />
<glyph unicode="M" horiz-adv-x="900" d="M644 0V401L495 0H405L256 401V0H54V667H333L450 347L567 667H846V0H644Z"  />
<glyph unicode="N" horiz-adv-x="750" d="M502 0L256 338V0H54V667H262L494 351V667H696V0H502Z"  />
<glyph unicode="O" horiz-adv-x="766" d="M383 -12Q306 -12 239 13T123 83T46 192T18 333Q18 410 46 473T123 582T239 653T383 678Q460 678 527 653T643 583T720 474T748 333Q748 256 720 193T643 84T527 13T383 -12ZM383 166Q419 166 448 179T499 214T531 267T543 333Q543 368 532 398T499 451T449 487T383 500Q347 500 318 487T267 452T235 399T223 333Q223 298 234 268T267 215T317 179T383 166Z"  />
<glyph unicode="P" horiz-adv-x="662" d="M54 0V667H410Q468 667 513 649T588 600T634 527T650 438Q650 391 635 350T589 278T513 228T410 210H256V0H54ZM384 386Q410 386 427 399T445 438Q445 465 428 478T384 491H256V386H384Z"  />
<glyph unicode="Q" horiz-adv-x="766" d="M383 -12Q306 -12 239 13T123 83T46 192T18 333Q18 410 46 473T123 582T239 653T383 678Q460 678 527 653T643 583T720 474T748 333Q748 265 726 208T665 107L701 62L561 -50L514 8Q451 -12 383 -12ZM389 166L343 224L483 336L533 272Q543 299 543 333Q543 368 532 398T499 451T449 487T383 500Q347 500 318 487T267 452T235 399T223 333Q223 298 234 268T267 215T317 179T383 166H389Z"  />
<glyph unicode="R" horiz-adv-x="678" d="M421 0L329 210H256V0H54V667H410Q468 667 513 649T588 600T634 527T650 438Q650 395 639 362T610 304T571 263T530 236L651 0H421ZM379 386Q405 386 425 398T445 439Q445 466 425 478T379 491H256V386H379Z"  />
<glyph unicode="S" horiz-adv-x="613" d="M313 -12Q206 -12 132 17T3 94L108 244Q146 208 200 183T323 158Q352 158 374 166T397 194Q397 210 370 217T301 232T211 250T122 285T53 349T25 456Q25 498 42 538T95 609T181 658T302 677Q384 677 456 654T585 584L477 441Q433 474 381 490T281 507Q251 507 241 499T230 477Q230 461 257 453T326 438T415 418T505 383T573 321T601 220Q601 165 581 122T524 49T434 4T313 -12Z"  />
<glyph unicode="T" horiz-adv-x="595" d="M197 0V491H18V667H577V491H399V0H197Z"  />
<glyph unicode="U" horiz-adv-x="767" d="M384 -12Q300 -12 238 9T135 69T74 159T54 274V667H259V281Q259 233 290 200T384 166Q446 166 477 199T508 281V667H713V275Q713 213 693 160T633 69T530 10T384 -12Z"  />
<glyph unicode="V" horiz-adv-x="710" d="M228 0L-18 667H211L355 218L499 667H728L482 0H228Z"  />
<glyph unicode="W" horiz-adv-x="954" d="M563 0L477 378L391 0H179L-12 667H214L300 259L401 667H553L654 259L739 667H966L775 0H563Z"  />
<glyph unicode="X" horiz-adv-x="684" d="M464 0L342 204L220 0H-18L205 342L-3 667H234L342 477L448 667H687L479 343L702 0H464Z"  />
<glyph unicode="Y" horiz-adv-x="664" d="M232 0V265L-18 667H209L333 442L455 667H682L434 265V0H232Z"  />
<glyph unicode="Z" horiz-adv-x="600" d="M36 0V160L290 491H36V667H557V508L302 176H564V0H36Z"  />
<glyph unicode="[" horiz-adv-x="317" d="M54 -190V678H299V564H179V-76H299V-190H54Z"  />
<glyph unicode="\" horiz-adv-x="362" d="M0 687H125L362 -20H237L0 687Z"  />
<glyph unicode="]" horiz-adv-x="317" d="M18 -190V-76H138V564H18V678H263V-190H18Z"  />
<glyph unicode="^" horiz-adv-x="450" d="M305 333L225 548L146 333H19L162 667H291L431 333H305Z"  />
<glyph unicode="_" horiz-adv-x="564" d="M-3 -154V-40H567V-154H-3Z"  />
<glyph unicode="`" horiz-adv-x="275" d="M155 556L0 700H155L275 556H155Z"  />
<glyph unicode="a" horiz-adv-x="621" d="M425 550L638 0H430L410 61H212L192 0H-17L197 550H425ZM311 365L264 222H358L311 365Z"  />
<glyph unicode="b" horiz-adv-x="618" d="M50 0V550H405Q451 550 484 537T538 504T570 459T581 409Q581 360 555 328T487 284Q534 274 563 238T593 150Q593 121 582 94T550 46T495 13T417 0H50ZM375 151Q388 151 396 158T404 177Q404 188 396 195T375 203H237V151H375ZM368 353Q378 353 385 359T392 376Q392 385 386 392T368 399H237V353H368Z"  />
<glyph unicode="c" horiz-adv-x="588" d="M323 -12Q256 -12 200 9T104 68T40 159T17 275Q17 339 40 391T103 482T200 541T323 562Q375 562 416 548T489 511T543 457T579 395L422 324Q411 355 385 377T323 399Q296 399 275 390T238 363T214 324T205 275Q205 249 213 227T237 187T274 161T323 151Q359 151 385 172T422 225L579 156Q566 124 544 94T490 41T416 3T323 -12Z"  />
<glyph unicode="d" horiz-adv-x="637" d="M50 0V550H313Q382 550 438 532T535 479T598 392T620 275Q620 209 598 158T536 72T439 19T314 0H50ZM313 161Q344 161 366 170T403 196T425 232T432 275Q432 299 426 320T407 356T370 380T314 389H237V161H313Z"  />
<glyph unicode="e" horiz-adv-x="530" d="M50 0V550H498V395H237V355H492V201H237V155H498V0H50Z"  />
<glyph unicode="f" horiz-adv-x="526" d="M50 0V550H498V395H237V355H492V200H237V0H50Z"  />
<glyph unicode="g" horiz-adv-x="606" d="M326 -12Q261 -12 205 8T107 65T41 156T17 275Q17 341 41 394T106 485T204 542T326 562Q371 562 408 551T476 520T528 477T564 428L410 344Q399 367 378 382T326 398Q270 398 238 363T206 275Q206 223 238 187T326 151Q349 151 366 157T395 172V189H303V333H581V101Q532 49 469 19T326 -12Z"  />
<glyph unicode="h" horiz-adv-x="666" d="M430 0V200H237V0H50V550H237V361H430V550H616V0H430Z"  />
<glyph unicode="i" horiz-adv-x="287" d="M50 0V550H237V0H50Z"  />
<glyph unicode="j" horiz-adv-x="444" d="M157 -12Q115 -12 74 0T0 39L68 181Q82 168 101 160T141 151Q171 151 189 167T207 213V550H394V195Q394 141 378 102T330 38T256 0T157 -12Z"  />
<glyph unicode="k" horiz-adv-x="598" d="M387 0L262 186L237 154V0H50V550H237V360L377 550H601L383 294L610 0H387Z"  />
<glyph unicode="l" horiz-adv-x="479" d="M50 0V550H237V161H454V0H50Z"  />
<glyph unicode="m" horiz-adv-x="794" d="M558 0V300L441 0H354L237 300V0H50V550H296L397 285L498 550H744V0H558Z"  />
<glyph unicode="n" horiz-adv-x="665" d="M423 0L236 261V0H50V550H253L429 305V550H615V0H423Z"  />
<glyph unicode="o" horiz-adv-x="647" d="M323 -12Q256 -12 200 9T104 68T40 159T17 275Q17 338 40 391T103 482T200 541T323 562Q390 562 446 541T543 482T607 391T630 275Q630 212 607 159T543 68T446 9T323 -12ZM323 151Q350 151 372 160T409 187T432 226T441 275Q441 301 433 323T409 363T372 389T323 399Q296 399 275 390T238 363T214 324T205 275Q205 249 213 227T237 187T274 161T323 151Z"  />
<glyph unicode="p" horiz-adv-x="585" d="M50 0V550H370Q418 550 456 535T521 493T562 431T576 357Q576 318 563 283T525 222T460 180T370 164H237V0H50ZM346 325Q364 325 375 334T387 357Q387 371 376 380T346 389H237V325H346Z"  />
<glyph unicode="q" horiz-adv-x="647" d="M323 -12Q256 -12 200 9T104 68T40 159T17 275Q17 338 40 391T103 482T200 541T323 562Q390 562 446 541T543 482T607 391T630 275Q630 218 612 170T559 84L590 47L480 -39L442 7Q415 -2 385 -7T323 -12ZM325 151L297 186L405 272L435 235Q441 253 441 275Q441 301 433 323T409 363T372 389T323 399Q296 399 275 390T238 363T214 324T205 275Q205 249 213 227T237 187T274 161T323 151H325Z"  />
<glyph unicode="r" horiz-adv-x="602" d="M368 0L293 164H237V0H50V550H370Q418 550 456 535T521 493T562 431T576 357Q576 318 565 289T539 238T505 204T471 184L577 0H368ZM346 325Q364 325 375 334T387 357Q387 371 376 380T346 389H237V325H346Z"  />
<glyph unicode="s" horiz-adv-x="528" d="M260 -12Q175 -12 109 11T3 67L82 204Q97 190 118 178T163 157T214 143T267 138Q296 138 312 145T329 165Q329 177 307 182T250 192T176 207T102 236T45 289T22 377Q22 412 38 445T85 505T161 546T264 562Q339 562 400 542T508 483L425 358Q409 370 388 380T345 397T302 408T262 412Q234 412 223 405T211 387Q211 375 233 370T290 360T364 345T438 317T495 264T518 178Q518 87 450 38T260 -12Z"  />
<glyph unicode="t" horiz-adv-x="501" d="M158 0V389H15V550H486V389H344V0H158Z"  />
<glyph unicode="u" horiz-adv-x="669" d="M335 -12Q262 -12 209 5T120 54T67 129T50 224V550H238V242Q238 204 263 178T335 151Q381 151 406 177T431 242V550H619V225Q619 174 602 131T550 56T462 6T335 -12Z"  />
<glyph unicode="v" horiz-adv-x="621" d="M197 0L-17 550H194L311 200L430 550H638L425 0H197Z"  />
<glyph unicode="w" horiz-adv-x="831" d="M483 0L415 285L348 0H154L-12 550H197L264 240L345 550H486L567 240L635 550H843L677 0H483Z"  />
<glyph unicode="x" horiz-adv-x="601" d="M401 0L300 159L200 0H-17L177 282L-3 550H213L300 404L387 550H604L424 283L618 0H401Z"  />
<glyph unicode="y" horiz-adv-x="583" d="M200 0V220L-17 550H191L293 375L393 550H600L384 220V0H200Z"  />
<glyph unicode="z" horiz-adv-x="531" d="M32 0V133L232 387H32V550H493V418L293 163H499V0H32Z"  />
<glyph unicode="{" horiz-adv-x="316" d="M239 -190Q203 -190 170 -178T111 -142T70 -84T54 -6V133Q54 161 41 179T2 197V291Q28 291 41 309T54 355V493Q54 536 69 570T110 629T169 665T239 678H299V564H239Q214 564 197 546T179 494V335Q179 303 169 279T133 244Q158 233 168 209T179 153V-5Q179 -37 196 -56T239 -76H299V-190H239Z"  />
<glyph unicode="|" horiz-adv-x="222" d="M54 -20V687H168V-20H54Z"  />
<glyph unicode="}" horiz-adv-x="316" d="M17 -76H77Q102 -76 119 -57T137 -5V153Q137 185 147 209T183 244Q158 255 148 279T137 335V494Q137 527 120 545T77 564H17V678H77Q113 678 146 666T205 629T246 571T262 493V355Q262 327 275 309T314 291V197Q288 197 275 179T262 133V-6Q262 -50 247 -84T206 -141T147 -177T77 -190H17V-76Z"  />
<glyph unicode="~" horiz-adv-x="518" d="M493 653Q490 609 482 564T457 483T411 424T334 401Q300 401 279 413T245 443T225 482T213 521T202 551T185 563Q173 563 166 547T154 506T147 453T143 401L25 414Q28 458 36 503T61 584T108 644T185 667Q219 667 240 655T274 625T294 586T306 546T317 516T334 504Q346 504 353 520T365 561T372 614T377 667L493 653Z"  />
<glyph unicode="&#xA0;" horiz-adv-x="255" />
<glyph unicode="&#xA1;" horiz-adv-x="224" d="M37 305H184L207 0H16L37 305ZM5 456Q5 477 13 496T36 530T70 553T111 562Q133 562 152 554T185 531T208 497T217 456Q217 434 209 415T186 381T152 358T111 349Q89 349 70 357T37 380T14 414T5 456Z"  />
<glyph unicode="&#xA2;" horiz-adv-x="588" d="M255 -6Q202 4 158 28T83 89T34 173T17 275Q17 330 34 377T82 460T158 521T255 556V628H381V557Q420 549 451 533T507 496T550 448T579 395L422 324Q411 355 385 377T323 399Q296 399 275 390T238 363T214 324T205 275Q205 249 213 227T237 187T274 161T323 151Q359 151 385 172T422 225L579 156Q568 129 550 103T508 55T452 17T381 -6V-74H255V-6Z"  />
<glyph unicode="&#xA3;" horiz-adv-x="474" d="M17 315H43Q30 347 30 375Q30 418 49 452T99 511T167 548T243 561Q324 561 376 537T460 458L323 385Q314 411 297 421T264 431Q242 431 229 415T216 372Q216 356 219 343T227 315H341V225H255Q255 223 255 221T256 216Q256 193 245 174T225 147Q233 151 243 151Q259 151 270 148T291 142T310 136T334 133Q354 133 370 140T396 160L462 34Q442 12 408 2T328 -9Q301 -9 281 -4T243 6T209 17T176 22Q157 22 134 14T89 -6L32 100Q61 114 81 132T101 169Q101 182 97 196T86 225H17V315Z"  />
<glyph unicode="&#xA4;" horiz-adv-x="506" d="M253 222Q310 222 341 262T372 365Q372 395 364 421T341 467T304 498T253 509Q224 509 202 498T165 468T141 422T133 365Q133 334 141 308T164 263T202 233T253 222ZM19 168L88 239Q50 294 50 365Q50 436 88 489L19 560L64 603L131 534Q155 552 185 563T253 574Q289 574 320 563T375 534L442 603L487 560L418 489Q455 435 455 365Q455 330 445 298T417 240L487 168L442 125L374 194Q325 157 253 157Q181 157 132 194L64 125L19 168Z"  />
<glyph unicode="&#xA5;" horiz-adv-x="583" d="M200 0V102H27V190H200V219H27V307H143L-17 550H191L293 375L393 550H600L441 307H554V219H384V190H554V102H384V0H200Z"  />
<glyph unicode="&#xA6;" horiz-adv-x="222" d="M54 -20V296H168V-20H54ZM54 371V687H168V371H54Z"  />
<glyph unicode="&#xA7;" horiz-adv-x="500" d="M475 336Q475 297 455 263T400 208Q431 193 453 164T475 85Q475 46 458 15T409 -37T337 -70T246 -81Q168 -81 109 -57T12 -1L81 111Q94 99 113 87T154 64T199 48T246 41Q272 41 287 47T303 68Q303 85 283 93T232 107T166 122T100 148T50 194T29 273Q29 297 37 317T58 352T84 377T109 394Q67 414 48 448T29 524Q29 557 45 585T91 634T159 665T244 677Q325 677 374 657T453 612L388 507Q362 527 326 541T253 555Q201 555 201 528Q201 514 221 507T272 495T338 481T404 457T454 412T475 336ZM298 298Q298 320 284 333T244 351Q218 346 210 333T201 303Q201 276 221 265T264 249Q284 257 291 269T298 298Z"  />
<glyph unicode="&#xA8;" horiz-adv-x="318" d="M357 618Q357 580 331 555T267 529Q230 529 204 554T178 618Q178 656 204 681T267 707Q305 707 331 682T357 618ZM140 618Q140 580 115 555T51 529Q13 529 -12 554T-38 618Q-38 656 -13 681T51 707Q89 707 114 682T140 618Z"  />
<glyph unicode="&#xA9;" horiz-adv-x="778" d="M734 334Q734 263 707 200T633 90T524 16T389 -11Q318 -11 255 16T145 90T71 200T44 334Q44 406 71 468T145 578T255 652T389 679Q461 679 523 652T633 578T707 469T734 334ZM692 334Q692 397 668 452T603 548T507 613T389 637Q327 637 272 613T175 548T110 452T86 334Q86 272 110 217T175 120T271 55T389 31Q452 31 507 55T603 120T668 216T692 334ZM549 195Q522 163 483 144T397 125Q354 125 316 140T250 184T206 250T189 335Q189 381 205 419T250 484T316 527T397 543Q444 543 482 525T547 475L510 438Q490 464 461 480T397 496Q365 496 337 484T289 451T256 400T244 335Q244 300 256 270T288 219T337 185T397 172Q433 172 462 188T511 231L549 195Z"  />
<glyph unicode="&#xAA;" horiz-adv-x="392" d="M225 326V355Q217 344 194 331T129 318Q110 318 91 324T56 343T30 375T20 421Q20 448 30 467T55 498T90 515T129 521Q170 521 193 510T225 488V512Q225 530 211 542T168 555Q146 555 124 546T82 519L38 601Q71 626 113 637T191 648Q221 648 250 642T301 621T338 578T352 509V326H225ZM183 395Q195 395 207 400T225 414V429Q220 437 208 442T183 447Q170 447 158 442T145 421Q145 404 157 400T183 395Z"  />
<glyph unicode="&#xAB;" horiz-adv-x="615" d="M425 63L265 243L425 420H585L425 243L585 63H425ZM190 63L30 243L190 420H350L190 243L350 63H190Z"  />
<glyph unicode="&#xAC;" horiz-adv-x="527" d="M481 190H373V373H29V478H481V190Z"  />
<glyph unicode="&#xAD;" horiz-adv-x="300" d="M30 167V317H270V167H30Z"  />
<glyph unicode="&#xAE;" horiz-adv-x="494" d="M459 465Q459 421 443 383T398 315T330 270T247 253Q203 253 165 269T97 315T52 382T35 465Q35 509 51 548T97 615T164 660T247 677Q291 677 330 661T397 616T442 548T459 465ZM424 465Q424 502 410 534T372 591T316 628T247 642Q210 642 178 629T122 591T84 535T70 465Q70 429 84 397T122 340T178 302T247 288Q284 288 316 302T372 340T410 396T424 465ZM304 343L241 439H202V343H165V586H264Q295 586 320 566T346 512Q346 492 339 478T321 456T300 444T284 440L349 343H304ZM308 512Q308 532 294 543T264 555H202V471H264Q280 471 294 482T308 512Z"  />
<glyph unicode="&#xAF;" horiz-adv-x="363" d="M0 591V688H363V591H0Z"  />
<glyph unicode="&#xB0;" horiz-adv-x="331" d="M314 528Q314 497 302 470T270 423T223 392T165 380Q134 380 107 391T60 423T29 470T17 528Q17 559 28 586T60 633T107 665T165 677Q196 677 223 665T270 633T302 586T314 528ZM224 528Q224 552 207 569T165 587Q141 587 125 570T108 528Q108 504 124 488T165 471Q189 471 206 487T224 528Z"  />
<glyph unicode="&#xB1;" horiz-adv-x="510" d="M313 328V135H197V328H29V433H197V618H313V433H481V328H313ZM29 0V105H481V0H29Z"  />
<glyph unicode="&#xB2;" horiz-adv-x="407" d="M42 421V516Q114 566 154 595T215 642T239 667T244 685Q244 702 232 712T194 723Q178 723 162 719T132 707T107 692T88 675L22 759Q59 797 107 812T197 827Q281 827 328 792T376 696Q376 677 370 659T347 621T303 578T232 525H380V421H42Z"  />
<glyph unicode="&#xB3;" horiz-adv-x="407" d="M383 534Q383 507 370 485T333 448T276 423T202 414Q140 414 95 431T23 476L85 563Q111 538 143 528T197 518Q226 518 239 525T252 544Q252 564 233 568T179 572Q165 572 150 572T130 571V673Q137 672 152 672T178 672Q216 672 230 677T245 698Q245 712 230 717T188 723Q162 723 135 714T86 684L28 761Q56 790 98 808T203 827Q292 827 334 796T376 716Q376 685 352 660T287 627Q304 625 321 619T352 600T374 572T383 534Z"  />
<glyph unicode="&#xB4;" horiz-adv-x="275" d="M120 556H0L120 700H275L120 556Z"  />
<glyph unicode="&#xB5;" horiz-adv-x="606" d="M50 -184V483H230V215Q230 178 248 163T300 147Q330 147 347 159T376 185V483H556V0H376V54Q356 32 321 12T230 -12V-184H50Z"  />
<glyph unicode="&#xB6;" horiz-adv-x="449" d="M347 -100V587H279V-100H199V323Q163 323 132 336T78 373T41 428T27 495Q27 531 40 562T77 616T132 653T199 667H427V-100H347Z"  />
<glyph unicode="&#xB7;" horiz-adv-x="283" d="M247 244Q247 223 239 204T216 170T182 147T141 138Q119 138 100 146T67 169T44 203T35 244Q35 266 43 285T66 319T100 342T141 351Q163 351 182 343T215 320T238 286T247 244Z"  />
<glyph unicode="&#xB8;" horiz-adv-x="237" d="M119 -200Q79 -200 48 -190T0 -166L31 -102Q51 -116 72 -124T114 -132Q130 -132 143 -127T156 -108Q156 -91 135 -91Q119 -91 109 -103L50 -69L80 11H160L135 -47Q150 -38 169 -38Q196 -38 216 -58T237 -111Q237 -154 202 -177T119 -200Z"  />
<glyph unicode="&#xB9;" horiz-adv-x="336" d="M144 421V654L74 585L0 663L163 821H276V421H144Z"  />
<glyph unicode="&#xBA;" horiz-adv-x="405" d="M202 318Q159 318 126 331T69 368T33 420T20 483Q20 516 32 545T68 598T125 634T202 648Q245 648 279 635T337 598T372 546T385 483Q385 450 373 421T337 368T280 332T202 318ZM202 418Q227 418 241 433T255 483Q255 517 241 531T202 546Q178 546 165 532T151 483Q151 449 164 434T202 418Z"  />
<glyph unicode="&#xBB;" horiz-adv-x="615" d="M190 63H30L190 243L30 420H190L350 243L190 63ZM425 63H265L425 243L265 420H425L585 243L425 63Z"  />
<glyph unicode="&#xBC;" horiz-adv-x="897" d="M265 0H168L594 667H692L265 0ZM837 71V0H706V71H509V158L652 400H837V173H884V71H837ZM706 291L638 173H706V291ZM144 267V500L74 431L0 509L163 667H276V267H144Z"  />
<glyph unicode="&#xBD;" horiz-adv-x="927" d="M265 0H168L594 667H692L265 0ZM562 0V95Q634 145 674 174T735 221T759 246T764 264Q764 281 752 291T714 302Q698 302 682 298T652 286T627 271T608 254L542 338Q579 376 627 391T717 406Q801 406 848 371T896 275Q896 256 890 238T867 200T823 157T752 104H900V0H562ZM144 267V500L74 431L0 509L163 667H276V267H144Z"  />
<glyph unicode="&#xBE;" horiz-adv-x="964" d="M332 0H235L661 667H759L332 0ZM904 71V0H773V71H576V158L719 400H904V173H951V71H904ZM773 291L705 173H773V291ZM383 380Q383 353 370 331T333 294T276 269T202 260Q140 260 95 277T23 322L85 409Q111 384 143 374T197 364Q226 364 239 371T252 390Q252 410 233 414T179 418Q165 418 150 418T130 417V519Q137 518 152 518T178 518Q216 518 230 523T245 544Q245 558 230 563T188 569Q162 569 135 560T86 530L28 607Q56 636 98 654T203 673Q292 673 334 642T376 562Q376 531 352 506T287 473Q304 471 321 465T352 446T374 418T383 380Z"  />
<glyph unicode="&#xBF;" horiz-adv-x="395" d="M6 111Q6 138 15 157T37 191T66 217T95 237T117 254T126 273Q126 283 124 289T116 301L260 332Q271 318 275 299T279 268Q279 239 265 221T234 191T203 171T189 155Q189 149 195 146T219 142Q245 142 269 152T311 179L395 66Q356 26 304 8T199 -11Q110 -11 58 23T6 111ZM87 455Q87 477 95 496T118 530T152 553T194 562Q216 562 235 554T269 531T292 497T301 455Q301 433 293 414T270 380T236 357T194 348Q172 348 153 356T119 379T96 413T87 455Z"  />
<glyph unicode="&#xC0;" horiz-adv-x="710" d="M334 728L179 872H334L454 728H334ZM499 0L475 78H235L211 0H-18L228 667H482L728 0H499ZM355 469L289 254H421L355 469Z"  />
<glyph unicode="&#xC1;" horiz-adv-x="710" d="M379 728H259L379 872H534L379 728ZM499 0L475 78H235L211 0H-18L228 667H482L728 0H499ZM355 469L289 254H421L355 469Z"  />
<glyph unicode="&#xC2;" horiz-adv-x="710" d="M419 728L355 801L294 728H189L277 872H433L524 728H419ZM499 0L475 78H235L211 0H-18L228 667H482L728 0H499ZM355 469L289 254H421L355 469Z"  />
<glyph unicode="&#xC3;" horiz-adv-x="710" d="M408 726Q385 726 369 732T340 747T318 762T298 769Q288 769 281 760T274 732H185Q185 801 215 833T303 866Q326 866 342 860T371 845T393 830T413 823Q423 823 430 832T437 860H526Q526 791 496 759T408 726ZM499 0L475 78H235L211 0H-18L228 667H482L728 0H499ZM355 469L289 254H421L355 469Z"  />
<glyph unicode="&#xC4;" horiz-adv-x="710" d="M553 795Q553 757 527 732T463 706Q426 706 400 731T374 795Q374 833 400 858T463 884Q501 884 527 859T553 795ZM336 795Q336 757 311 732T247 706Q209 706 184 731T158 795Q158 833 183 858T247 884Q285 884 310 859T336 795ZM499 0L475 78H235L211 0H-18L228 667H482L728 0H499ZM355 469L289 254H421L355 469Z"  />
<glyph unicode="&#xC5;" horiz-adv-x="710" d="M356 693Q333 693 313 702T277 726T253 761T244 805Q244 828 253 848T277 884T312 908T356 917Q379 917 399 908T434 884T457 849T466 805Q466 782 458 762T434 726T399 702T356 693ZM356 770Q370 770 380 780T390 805Q390 819 380 829T356 840Q342 840 332 830T321 805Q321 791 331 781T356 770ZM499 0L475 78H235L211 0H-18L228 667H482L728 0H499ZM355 469L289 254H421L355 469Z"  />
<glyph unicode="&#xC6;" horiz-adv-x="989" d="M453 0V78H246L205 0H-25L370 667H959V491H655V425H952V249H655V176H959V0H453ZM453 469L340 254H453V469Z"  />
<glyph unicode="&#xC7;" horiz-adv-x="697" d="M379 -196Q339 -196 308 -186T260 -162L291 -98Q311 -112 332 -120T374 -128Q390 -128 403 -123T416 -104Q416 -87 395 -87Q379 -87 369 -99L310 -65L331 -8Q263 0 206 28T107 100T42 204T18 333Q18 410 46 473T123 582T239 653T385 678Q451 678 500 661T587 616T648 553T688 484L514 403Q508 422 496 440T466 471T428 492T385 500Q349 500 319 487T268 452T235 399T223 333Q223 298 234 268T267 215T319 179T385 166Q407 166 428 174T466 195T495 225T514 263L688 183Q674 151 651 118T594 58T514 11T408 -11L395 -43Q410 -34 429 -34Q456 -34 476 -54T497 -107Q497 -150 462 -173T379 -196Z"  />
<glyph unicode="&#xC8;" horiz-adv-x="596" d="M286 728L131 872H286L406 728H286ZM54 0V667H560V491H256V425H553V249H256V176H560V0H54Z"  />
<glyph unicode="&#xC9;" horiz-adv-x="596" d="M330 728H210L330 872H485L330 728ZM54 0V667H560V491H256V425H553V249H256V176H560V0H54Z"  />
<glyph unicode="&#xCA;" horiz-adv-x="596" d="M370 728L306 801L245 728H140L228 872H384L475 728H370ZM54 0V667H560V491H256V425H553V249H256V176H560V0H54Z"  />
<glyph unicode="&#xCB;" horiz-adv-x="596" d="M508 795Q508 757 482 732T418 706Q381 706 355 731T329 795Q329 833 355 858T418 884Q456 884 482 859T508 795ZM291 795Q291 757 266 732T202 706Q164 706 139 731T113 795Q113 833 138 858T202 884Q240 884 265 859T291 795ZM54 0V667H560V491H256V425H553V249H256V176H560V0H54Z"  />
<glyph unicode="&#xCC;" horiz-adv-x="310" d="M131 728L-24 872H131L251 728H131ZM54 0V667H256V0H54Z"  />
<glyph unicode="&#xCD;" horiz-adv-x="310" d="M181 728H61L181 872H336L181 728ZM54 0V667H256V0H54Z"  />
<glyph unicode="&#xCE;" horiz-adv-x="310" d="M216 728L152 801L91 728H-14L74 872H230L321 728H216ZM54 0V667H256V0H54Z"  />
<glyph unicode="&#xCF;" horiz-adv-x="310" d="M353 794Q353 756 327 731T263 705Q226 705 200 730T174 794Q174 832 200 857T263 883Q301 883 327 858T353 794ZM136 794Q136 756 111 731T47 705Q9 705 -16 730T-42 794Q-42 832 -17 857T47 883Q85 883 110 858T136 794ZM54 0V667H256V0H54Z"  />
<glyph unicode="&#xD0;" horiz-adv-x="757" d="M75 0V254H7V413H75V667H373Q452 667 519 645T635 581T711 476T739 334Q739 254 712 192T635 87T519 22T374 0H75ZM277 254V176H373Q411 176 441 189T491 223T523 273T534 334Q534 368 524 396T495 446T445 479T374 491H277V413H406V254H277Z"  />
<glyph unicode="&#xD1;" horiz-adv-x="750" d="M426 726Q403 726 387 732T358 747T336 762T316 769Q306 769 299 760T292 732H203Q203 801 233 833T321 866Q344 866 360 860T389 845T411 830T431 823Q441 823 448 832T455 860H544Q544 791 514 759T426 726ZM502 0L256 338V0H54V667H262L494 351V667H696V0H502Z"  />
<glyph unicode="&#xD2;" horiz-adv-x="766" d="M363 728L208 872H363L483 728H363ZM383 -12Q306 -12 239 13T123 83T46 192T18 333Q18 410 46 473T123 582T239 653T383 678Q460 678 527 653T643 583T720 474T748 333Q748 256 720 193T643 84T527 13T383 -12ZM383 166Q419 166 448 179T499 214T531 267T543 333Q543 368 532 398T499 451T449 487T383 500Q347 500 318 487T267 452T235 399T223 333Q223 298 234 268T267 215T317 179T383 166Z"  />
<glyph unicode="&#xD3;" horiz-adv-x="766" d="M407 728H287L407 872H562L407 728ZM383 -12Q306 -12 239 13T123 83T46 192T18 333Q18 410 46 473T123 582T239 653T383 678Q460 678 527 653T643 583T720 474T748 333Q748 256 720 193T643 84T527 13T383 -12ZM383 166Q419 166 448 179T499 214T531 267T543 333Q543 368 532 398T499 451T449 487T383 500Q347 500 318 487T267 452T235 399T223 333Q223 298 234 268T267 215T317 179T383 166Z"  />
<glyph unicode="&#xD4;" horiz-adv-x="766" d="M449 728L385 801L324 728H219L307 872H463L554 728H449ZM383 -12Q306 -12 239 13T123 83T46 192T18 333Q18 410 46 473T123 582T239 653T383 678Q460 678 527 653T643 583T720 474T748 333Q748 256 720 193T643 84T527 13T383 -12ZM383 166Q419 166 448 179T499 214T531 267T543 333Q543 368 532 398T499 451T449 487T383 500Q347 500 318 487T267 452T235 399T223 333Q223 298 234 268T267 215T317 179T383 166Z"  />
<glyph unicode="&#xD5;" horiz-adv-x="766" d="M436 726Q413 726 397 732T368 747T346 762T326 769Q316 769 309 760T302 732H213Q213 801 243 833T331 866Q354 866 370 860T399 845T421 830T441 823Q451 823 458 832T465 860H554Q554 791 524 759T436 726ZM383 -12Q306 -12 239 13T123 83T46 192T18 333Q18 410 46 473T123 582T239 653T383 678Q460 678 527 653T643 583T720 474T748 333Q748 256 720 193T643 84T527 13T383 -12ZM383 166Q419 166 448 179T499 214T531 267T543 333Q543 368 532 398T499 451T449 487T383 500Q347 500 318 487T267 452T235 399T223 333Q223 298 234 268T267 215T317 179T383 166Z"  />
<glyph unicode="&#xD6;" horiz-adv-x="766" d="M584 795Q584 757 558 732T494 706Q457 706 431 731T405 795Q405 833 431 858T494 884Q532 884 558 859T584 795ZM367 795Q367 757 342 732T278 706Q240 706 215 731T189 795Q189 833 214 858T278 884Q316 884 341 859T367 795ZM383 -12Q306 -12 239 13T123 83T46 192T18 333Q18 410 46 473T123 582T239 653T383 678Q460 678 527 653T643 583T720 474T748 333Q748 256 720 193T643 84T527 13T383 -12ZM383 166Q419 166 448 179T499 214T531 267T543 333Q543 368 532 398T499 451T449 487T383 500Q347 500 318 487T267 452T235 399T223 333Q223 298 234 268T267 215T317 179T383 166Z"  />
<glyph unicode="&#xD7;" horiz-adv-x="510" d="M255 260L122 126L47 200L181 334L47 468L122 542L255 408L389 542L463 468L330 334L463 200L389 126L255 260Z"  />
<glyph unicode="&#xD8;" horiz-adv-x="766" d="M383 -12Q273 -12 187 37L156 0H18L105 102Q63 147 41 205T18 333Q18 410 46 473T123 582T239 653T383 678Q432 678 476 668T561 638L586 667H724L648 577Q695 532 721 470T748 333Q748 256 720 193T643 84T527 13T383 -12ZM383 166Q419 166 448 179T499 214T531 267T543 333Q543 384 518 425L311 182Q345 166 383 166ZM223 333Q223 291 238 258L436 491Q412 500 383 500Q347 500 318 487T267 452T235 399T223 333Z"  />
<glyph unicode="&#xD9;" horiz-adv-x="767" d="M364 728L209 872H364L484 728H364ZM384 -12Q300 -12 238 9T135 69T74 159T54 274V667H259V281Q259 233 290 200T384 166Q446 166 477 199T508 281V667H713V275Q713 213 693 160T633 69T530 10T384 -12Z"  />
<glyph unicode="&#xDA;" horiz-adv-x="767" d="M409 728H289L409 872H564L409 728ZM384 -12Q300 -12 238 9T135 69T74 159T54 274V667H259V281Q259 233 290 200T384 166Q446 166 477 199T508 281V667H713V275Q713 213 693 160T633 69T530 10T384 -12Z"  />
<glyph unicode="&#xDB;" horiz-adv-x="767" d="M454 728L390 801L329 728H224L312 872H468L559 728H454ZM384 -12Q300 -12 238 9T135 69T74 159T54 274V667H259V281Q259 233 290 200T384 166Q446 166 477 199T508 281V667H713V275Q713 213 693 160T633 69T530 10T384 -12Z"  />
<glyph unicode="&#xDC;" horiz-adv-x="767" d="M585 795Q585 757 559 732T495 706Q458 706 432 731T406 795Q406 833 432 858T495 884Q533 884 559 859T585 795ZM368 795Q368 757 343 732T279 706Q241 706 216 731T190 795Q190 833 215 858T279 884Q317 884 342 859T368 795ZM384 -12Q300 -12 238 9T135 69T74 159T54 274V667H259V281Q259 233 290 200T384 166Q446 166 477 199T508 281V667H713V275Q713 213 693 160T633 69T530 10T384 -12Z"  />
<glyph unicode="&#xDD;" horiz-adv-x="664" d="M357 728H237L357 872H512L357 728ZM232 0V265L-18 667H209L333 442L455 667H682L434 265V0H232Z"  />
<glyph unicode="&#xDE;" horiz-adv-x="662" d="M54 0V667H256V571H410Q468 571 513 553T588 503T634 430T650 341Q650 294 635 253T589 181T513 132T410 114H256V0H54ZM384 290Q410 290 427 303T445 342Q445 368 428 381T384 395H256V290H384Z"  />
<glyph unicode="&#xDF;" horiz-adv-x="1056" d="M260 -12Q175 -12 109 11T3 67L82 204Q97 190 118 178T163 157T214 143T267 138Q296 138 312 145T329 165Q329 177 307 182T250 192T176 207T102 236T45 289T22 377Q22 412 38 445T85 505T161 546T264 562Q339 562 400 542T508 483L425 358Q409 370 388 380T345 397T302 408T262 412Q234 412 223 405T211 387Q211 375 233 370T290 360T364 345T438 317T495 264T518 178Q518 87 450 38T260 -12ZM788 -12Q703 -12 637 11T531 67L610 204Q625 190 646 178T691 157T742 143T795 138Q824 138 840 145T857 165Q857 177 835 182T778 192T704 207T630 236T573 289T550 377Q550 412 566 445T613 505T689 546T792 562Q867 562 928 542T1036 483L953 358Q937 370 916 380T873 397T830 408T790 412Q762 412 751 405T739 387Q739 375 761 370T818 360T892 345T966 317T1023 264T1046 178Q1046 87 978 38T788 -12Z"  />
<glyph unicode="&#xE0;" horiz-adv-x="621" d="M425 550L638 0H430L410 61H212L192 0H-17L197 550H425ZM311 365L264 222H358L311 365ZM289 606L134 750H289L409 606H289Z"  />
<glyph unicode="&#xE1;" horiz-adv-x="621" d="M425 550L638 0H430L410 61H212L192 0H-17L197 550H425ZM311 365L264 222H358L311 365ZM334 606H214L334 750H489L334 606Z"  />
<glyph unicode="&#xE2;" horiz-adv-x="621" d="M425 550L638 0H430L410 61H212L192 0H-17L197 550H425ZM311 365L264 222H358L311 365ZM374 606L310 679L249 606H144L232 750H388L479 606H374Z"  />
<glyph unicode="&#xE3;" horiz-adv-x="621" d="M425 550L638 0H430L410 61H212L192 0H-17L197 550H425ZM311 365L264 222H358L311 365ZM364 604Q341 604 325 610T296 625T274 640T254 647Q244 647 237 638T230 610H141Q141 679 171 711T259 744Q282 744 298 738T327 723T349 708T369 701Q379 701 386 710T393 738H482Q482 669 452 637T364 604Z"  />
<glyph unicode="&#xE4;" horiz-adv-x="621" d="M425 550L638 0H430L410 61H212L192 0H-17L197 550H425ZM311 365L264 222H358L311 365ZM509 688Q509 650 483 625T419 599Q382 599 356 624T330 688Q330 726 356 751T419 777Q457 777 483 752T509 688ZM292 688Q292 650 267 625T203 599Q165 599 140 624T114 688Q114 726 139 751T203 777Q241 777 266 752T292 688Z"  />
<glyph unicode="&#xE5;" horiz-adv-x="621" d="M425 550L638 0H430L410 61H212L192 0H-17L197 550H425ZM311 365L264 222H358L311 365ZM312 591Q289 591 269 600T233 624T209 659T200 703Q200 726 209 746T233 782T268 806T312 815Q335 815 355 806T390 782T413 747T422 703Q422 680 414 660T390 624T355 600T312 591ZM312 668Q326 668 336 678T346 703Q346 717 336 727T312 738Q298 738 288 728T277 703Q277 689 287 679T312 668Z"  />
<glyph unicode="&#xE6;" horiz-adv-x="869" d="M389 0V61H224L191 0H-18L315 550H837V395H575V355H830V200H575V155H837V0H389ZM389 365L311 222H389V365Z"  />
<glyph unicode="&#xE7;" horiz-adv-x="588" d="M319 -200Q279 -200 248 -190T200 -166L231 -102Q251 -116 272 -124T314 -132Q330 -132 343 -127T356 -108Q356 -91 335 -91Q319 -91 309 -103L250 -69L272 -8Q215 -1 169 22T88 83T36 169T17 275Q17 339 40 391T103 482T200 541T323 562Q375 562 416 548T489 511T543 457T579 395L422 324Q411 355 385 377T323 399Q296 399 275 390T238 363T214 324T205 275Q205 249 213 227T237 187T274 161T323 151Q359 151 385 172T422 225L579 156Q567 126 547 98T498 47T432 9T350 -10L335 -47Q350 -38 369 -38Q396 -38 416 -58T437 -111Q437 -154 402 -177T319 -200Z"  />
<glyph unicode="&#xE8;" horiz-adv-x="530" d="M50 0V550H498V395H237V355H492V201H237V155H498V0H50ZM252 606L97 750H252L372 606H252Z"  />
<glyph unicode="&#xE9;" horiz-adv-x="530" d="M50 0V550H498V395H237V355H492V201H237V155H498V0H50ZM298 606H178L298 750H453L298 606Z"  />
<glyph unicode="&#xEA;" horiz-adv-x="530" d="M50 0V550H498V395H237V355H492V201H237V155H498V0H50ZM339 606L275 679L214 606H109L197 750H353L444 606H339Z"  />
<glyph unicode="&#xEB;" horiz-adv-x="530" d="M50 0V550H498V395H237V355H492V201H237V155H498V0H50ZM473 688Q473 650 447 625T383 599Q346 599 320 624T294 688Q294 726 320 751T383 777Q421 777 447 752T473 688ZM256 688Q256 650 231 625T167 599Q129 599 104 624T78 688Q78 726 103 751T167 777Q205 777 230 752T256 688Z"  />
<glyph unicode="&#xEC;" horiz-adv-x="280" d="M50 0V550H237V0H50ZM117 606L-38 750H117L237 606H117Z"  />
<glyph unicode="&#xED;" horiz-adv-x="280" d="M50 0V550H237V0H50ZM163 606H43L163 750H318L163 606Z"  />
<glyph unicode="&#xEE;" horiz-adv-x="280" d="M50 0V550H237V0H50ZM203 606L139 679L78 606H-27L61 750H217L308 606H203Z"  />
<glyph unicode="&#xEF;" horiz-adv-x="280" d="M50 0V550H237V0H50ZM339 688Q339 650 313 625T249 599Q212 599 186 624T160 688Q160 726 186 751T249 777Q287 777 313 752T339 688ZM122 688Q122 650 97 625T33 599Q-5 599 -30 624T-56 688Q-56 726 -31 751T33 777Q71 777 96 752T122 688Z"  />
<glyph unicode="&#xF0;" horiz-adv-x="644" d="M51 0V212H7V338H51V550H314Q383 550 439 532T536 479T599 392T621 275Q621 209 599 158T537 72T440 19T315 0H51ZM238 212V161H314Q345 161 367 170T404 196T426 232T433 275Q433 299 427 320T408 356T371 380T315 389H238V338H331V212H238Z"  />
<glyph unicode="&#xF1;" horiz-adv-x="665" d="M423 0L236 261V0H50V550H253L429 305V550H615V0H423ZM386 604Q363 604 347 610T318 625T296 640T276 647Q266 647 259 638T252 610H163Q163 679 193 711T281 744Q304 744 320 738T349 723T371 708T391 701Q401 701 408 710T415 738H504Q504 669 474 637T386 604Z"  />
<glyph unicode="&#xF2;" horiz-adv-x="647" d="M323 -12Q256 -12 200 9T104 68T40 159T17 275Q17 338 40 391T103 482T200 541T323 562Q390 562 446 541T543 482T607 391T630 275Q630 212 607 159T543 68T446 9T323 -12ZM323 151Q350 151 372 160T409 187T432 226T441 275Q441 301 433 323T409 363T372 389T323 399Q296 399 275 390T238 363T214 324T205 275Q205 249 213 227T237 187T274 161T323 151ZM301 606L146 750H301L421 606H301Z"  />
<glyph unicode="&#xF3;" horiz-adv-x="647" d="M323 -12Q256 -12 200 9T104 68T40 159T17 275Q17 338 40 391T103 482T200 541T323 562Q390 562 446 541T543 482T607 391T630 275Q630 212 607 159T543 68T446 9T323 -12ZM323 151Q350 151 372 160T409 187T432 226T441 275Q441 301 433 323T409 363T372 389T323 399Q296 399 275 390T238 363T214 324T205 275Q205 249 213 227T237 187T274 161T323 151ZM348 606H228L348 750H503L348 606Z"  />
<glyph unicode="&#xF4;" horiz-adv-x="647" d="M323 -12Q256 -12 200 9T104 68T40 159T17 275Q17 338 40 391T103 482T200 541T323 562Q390 562 446 541T543 482T607 391T630 275Q630 212 607 159T543 68T446 9T323 -12ZM323 151Q350 151 372 160T409 187T432 226T441 275Q441 301 433 323T409 363T372 389T323 399Q296 399 275 390T238 363T214 324T205 275Q205 249 213 227T237 187T274 161T323 151ZM388 606L324 679L263 606H158L246 750H402L493 606H388Z"  />
<glyph unicode="&#xF5;" horiz-adv-x="647" d="M323 -12Q256 -12 200 9T104 68T40 159T17 275Q17 338 40 391T103 482T200 541T323 562Q390 562 446 541T543 482T607 391T630 275Q630 212 607 159T543 68T446 9T323 -12ZM323 151Q350 151 372 160T409 187T432 226T441 275Q441 301 433 323T409 363T372 389T323 399Q296 399 275 390T238 363T214 324T205 275Q205 249 213 227T237 187T274 161T323 151ZM379 604Q356 604 340 610T311 625T289 640T269 647Q259 647 252 638T245 610H156Q156 679 186 711T274 744Q297 744 313 738T342 723T364 708T384 701Q394 701 401 710T408 738H497Q497 669 467 637T379 604Z"  />
<glyph unicode="&#xF6;" horiz-adv-x="647" d="M323 -12Q256 -12 200 9T104 68T40 159T17 275Q17 338 40 391T103 482T200 541T323 562Q390 562 446 541T543 482T607 391T630 275Q630 212 607 159T543 68T446 9T323 -12ZM323 151Q350 151 372 160T409 187T432 226T441 275Q441 301 433 323T409 363T372 389T323 399Q296 399 275 390T238 363T214 324T205 275Q205 249 213 227T237 187T274 161T323 151ZM524 688Q524 650 498 625T434 599Q397 599 371 624T345 688Q345 726 371 751T434 777Q472 777 498 752T524 688ZM307 688Q307 650 282 625T218 599Q180 599 155 624T129 688Q129 726 154 751T218 777Q256 777 281 752T307 688Z"  />
<glyph unicode="&#xF7;" horiz-adv-x="511" d="M331 505Q331 473 309 451T255 428Q223 428 201 450T179 505Q179 537 201 558T255 580Q287 580 309 559T331 505ZM29 285V390H482V285H29ZM331 170Q331 138 309 116T255 94Q223 94 201 116T179 170Q179 202 201 224T255 246Q287 246 309 224T331 170Z"  />
<glyph unicode="&#xF8;" horiz-adv-x="647" d="M323 -12Q242 -12 177 19L161 0H23L90 81Q55 118 36 167T17 275Q17 338 40 391T103 482T200 541T323 562Q363 562 399 554T468 532L483 550H621L554 470Q590 432 610 383T630 275Q630 212 607 159T543 68T446 9T323 -12ZM323 151Q350 151 372 160T409 187T432 226T441 275Q441 301 432 324L291 155Q304 151 323 151ZM205 275Q205 247 213 227L353 395Q341 399 323 399Q296 399 275 390T238 363T214 324T205 275Z"  />
<glyph unicode="&#xF9;" horiz-adv-x="669" d="M335 -12Q262 -12 209 5T120 54T67 129T50 224V550H238V242Q238 204 263 178T335 151Q381 151 406 177T431 242V550H619V225Q619 174 602 131T550 56T462 6T335 -12ZM312 606L157 750H312L432 606H312Z"  />
<glyph unicode="&#xFA;" horiz-adv-x="669" d="M335 -12Q262 -12 209 5T120 54T67 129T50 224V550H238V242Q238 204 263 178T335 151Q381 151 406 177T431 242V550H619V225Q619 174 602 131T550 56T462 6T335 -12ZM358 606H238L358 750H513L358 606Z"  />
<glyph unicode="&#xFB;" horiz-adv-x="669" d="M335 -12Q262 -12 209 5T120 54T67 129T50 224V550H238V242Q238 204 263 178T335 151Q381 151 406 177T431 242V550H619V225Q619 174 602 131T550 56T462 6T335 -12ZM398 606L334 679L273 606H168L256 750H412L503 606H398Z"  />
<glyph unicode="&#xFC;" horiz-adv-x="669" d="M335 -12Q262 -12 209 5T120 54T67 129T50 224V550H238V242Q238 204 263 178T335 151Q381 151 406 177T431 242V550H619V225Q619 174 602 131T550 56T462 6T335 -12ZM534 688Q534 650 508 625T444 599Q407 599 381 624T355 688Q355 726 381 751T444 777Q482 777 508 752T534 688ZM317 688Q317 650 292 625T228 599Q190 599 165 624T139 688Q139 726 164 751T228 777Q266 777 291 752T317 688Z"  />
<glyph unicode="&#xFD;" horiz-adv-x="583" d="M200 0V220L-17 550H191L293 375L393 550H600L384 220V0H200ZM316 606H196L316 750H471L316 606Z"  />
<glyph unicode="&#xFE;" horiz-adv-x="585" d="M50 0V550H237V480H370Q418 480 456 465T521 422T562 360T576 286Q576 247 563 212T525 151T460 109T370 93H237V0H50ZM346 254Q364 254 375 263T387 286Q387 300 376 309T346 319H237V254H346Z"  />
<glyph unicode="&#xFF;" horiz-adv-x="583" d="M200 0V220L-17 550H191L293 375L393 550H600L384 220V0H200ZM491 688Q491 650 465 625T401 599Q364 599 338 624T312 688Q312 726 338 751T401 777Q439 777 465 752T491 688ZM274 688Q274 650 249 625T185 599Q147 599 122 624T96 688Q96 726 121 751T185 777Q223 777 248 752T274 688Z"  />
<glyph unicode="&#x152;" horiz-adv-x="1062" d="M526 0V36Q494 11 448 0T360 -12Q287 -12 225 13T116 83T44 191T18 333Q18 411 44 474T116 583T224 652T360 677Q401 677 447 666T526 631V667H1032V491H728V425H1025V249H728V176H1032V0H526ZM526 430Q507 462 472 480T391 499Q352 499 321 486T268 451T235 398T223 333Q223 298 234 268T267 215T320 179T391 166Q436 166 471 185T526 237V430Z"  />
<glyph unicode="&#x153;" horiz-adv-x="905" d="M425 0V36Q396 10 361 -1T285 -12Q227 -12 178 9T93 68T37 158T17 275Q17 339 37 391T93 482T178 541T285 562Q323 562 359 551T425 514V550H873V395H612V355H867V200H612V155H873V0H425ZM425 346Q392 399 326 399Q270 399 238 363T205 275Q205 223 237 187T326 151Q359 151 384 165T425 205V346Z"  />
<glyph unicode="&#x160;" horiz-adv-x="613" d="M223 728L132 872H237L301 799L362 872H467L379 728H223ZM313 -12Q206 -12 132 17T3 94L108 244Q146 208 200 183T323 158Q352 158 374 166T397 194Q397 210 370 217T301 232T211 250T122 285T53 349T25 456Q25 498 42 538T95 609T181 658T302 677Q384 677 456 654T585 584L477 441Q433 474 381 490T281 507Q251 507 241 499T230 477Q230 461 257 453T326 438T415 418T505 383T573 321T601 220Q601 165 581 122T524 49T434 4T313 -12Z"  />
<glyph unicode="&#x161;" horiz-adv-x="528" d="M260 -12Q175 -12 109 11T3 67L82 204Q97 190 118 178T163 157T214 143T267 138Q296 138 312 145T329 165Q329 177 307 182T250 192T176 207T102 236T45 289T22 377Q22 412 38 445T85 505T161 546T264 562Q339 562 400 542T508 483L425 358Q409 370 388 380T345 397T302 408T262 412Q234 412 223 405T211 387Q211 375 233 370T290 360T364 345T438 317T495 264T518 178Q518 87 450 38T260 -12ZM192 606L101 750H206L270 677L331 750H436L348 606H192Z"  />
<glyph unicode="&#x178;" horiz-adv-x="664" d="M531 795Q531 757 505 732T441 706Q404 706 378 731T352 795Q352 833 378 858T441 884Q479 884 505 859T531 795ZM314 795Q314 757 289 732T225 706Q187 706 162 731T136 795Q136 833 161 858T225 884Q263 884 288 859T314 795ZM232 0V265L-18 667H209L333 442L455 667H682L434 265V0H232Z"  />
<glyph unicode="&#x17D;" horiz-adv-x="600" d="M224 728L133 872H238L302 799L363 872H468L380 728H224ZM36 0V160L290 491H36V667H557V508L302 176H564V0H36Z"  />
<glyph unicode="&#x17E;" horiz-adv-x="531" d="M32 0V133L232 387H32V550H493V418L293 163H499V0H32ZM187 606L96 750H201L265 677L326 750H431L343 606H187Z"  />
<glyph unicode="&#x192;" horiz-adv-x="428" d="M5 -119L73 190H39V315H101L117 383Q137 471 188 516T316 561Q349 561 382 550T438 516L381 372Q372 385 352 385Q338 385 328 374T315 349L307 315H368V190H280L210 -119H5Z"  />
<glyph unicode="&#x2C6;" horiz-adv-x="335" d="M230 556L166 629L105 556H0L88 700H244L335 556H230Z"  />
<glyph unicode="&#x2DC;" horiz-adv-x="341" d="M223 554Q200 554 184 560T155 575T133 590T113 597Q103 597 96 588T89 560H0Q0 629 30 661T118 694Q141 694 157 688T186 673T208 658T228 651Q238 651 245 660T252 688H341Q341 619 311 587T223 554Z"  />
<glyph unicode="&#x3BC;" horiz-adv-x="606" d="M50 -184V483H230V215Q230 178 248 163T300 147Q330 147 347 159T376 185V483H556V0H376V54Q356 32 321 12T230 -12V-184H50Z"  />
<glyph unicode="&#x2013;" horiz-adv-x="593" d="M30 167V317H563V167H30Z"  />
<glyph unicode="&#x2014;" horiz-adv-x="833" d="M30 167V317H803V167H30Z"  />
<glyph unicode="&#x2018;" horiz-adv-x="281" d="M30 458Q30 524 63 580T155 678L228 619Q216 614 202 604T176 580T153 552T137 523Q147 527 163 527Q199 527 224 502T250 434Q250 412 242 393T219 360T186 337T146 329Q123 329 102 337T65 362T40 403T30 458Z"  />
<glyph unicode="&#x2019;" horiz-adv-x="281" d="M254 548Q254 482 221 426T129 328L56 387Q68 392 82 402T108 426T131 454T147 483Q137 479 121 479Q85 479 60 504T34 572Q34 594 42 613T65 646T98 668T138 677Q161 677 182 669T219 644T244 603T254 548Z"  />
<glyph unicode="&#x201A;" horiz-adv-x="281" d="M254 73Q254 7 221 -49T129 -147L56 -88Q68 -83 82 -73T108 -49T131 -21T147 8Q137 4 121 4Q85 4 60 29T34 97Q34 119 42 138T65 171T98 193T138 202Q161 202 182 194T219 169T244 128T254 73Z"  />
<glyph unicode="&#x201C;" horiz-adv-x="528" d="M26 458Q26 524 59 580T151 678L224 619Q212 614 198 604T172 580T149 552T133 523Q143 527 159 527Q195 527 220 502T246 434Q246 412 238 393T215 360T182 337T142 329Q119 329 98 337T61 362T36 403T26 458ZM273 458Q273 524 306 580T398 678L471 619Q459 614 445 604T419 580T396 552T380 523Q390 527 406 527Q442 527 467 502T493 434Q493 412 485 393T462 360T429 337T389 329Q366 329 345 337T308 362T283 403T273 458Z"  />
<glyph unicode="&#x201D;" horiz-adv-x="528" d="M501 548Q501 482 468 426T376 328L303 387Q315 392 329 402T355 426T378 454T394 483Q384 479 368 479Q332 479 307 504T281 572Q281 594 289 613T312 646T345 668T385 677Q408 677 429 669T466 644T491 603T501 548ZM254 548Q254 482 221 426T129 328L56 387Q68 392 82 402T108 426T131 454T147 483Q137 479 121 479Q85 479 60 504T34 572Q34 594 42 613T65 646T98 668T138 677Q161 677 182 669T219 644T244 603T254 548Z"  />
<glyph unicode="&#x201E;" horiz-adv-x="528" d="M254 73Q254 7 221 -49T129 -147L56 -88Q68 -83 82 -73T108 -49T131 -21T147 8Q137 4 121 4Q85 4 60 29T34 97Q34 119 42 138T65 171T98 193T138 202Q161 202 182 194T219 169T244 128T254 73ZM501 73Q501 7 468 -49T376 -147L303 -88Q315 -83 329 -73T355 -49T378 -21T394 8Q384 4 368 4Q332 4 307 29T281 97Q281 119 289 138T312 171T345 193T385 202Q408 202 429 194T466 169T491 128T501 73Z"  />
<glyph unicode="&#x2020;" horiz-adv-x="291" d="M185 517L189 327H101L106 517L17 513V594L106 591L101 677H189L185 591L274 594V513L185 517Z"  />
<glyph unicode="&#x2021;" horiz-adv-x="291" d="M274 513L185 517V342L274 346V265L185 268L189 180H101L105 268L17 265V346L105 342V517L17 513V594L105 591L101 677H189L185 591L274 594V513Z"  />
<glyph unicode="&#x2022;" horiz-adv-x="358" d="M310 242Q310 215 300 192T272 151T231 123T180 113Q153 113 130 123T88 150T60 191T50 242Q50 269 60 292T88 334T129 362T180 372Q207 372 230 362T272 334T300 293T310 242Z"  />
<glyph unicode="&#x2026;" horiz-adv-x="846" d="M247 95Q247 74 239 55T216 21T182 -2T141 -11Q119 -11 100 -3T67 20T44 54T35 95Q35 117 43 136T66 170T100 193T141 202Q163 202 182 194T215 171T238 137T247 95ZM529 95Q529 74 521 55T498 21T464 -2T423 -11Q401 -11 382 -3T349 20T326 54T317 95Q317 117 325 136T348 170T382 193T423 202Q445 202 464 194T497 171T520 137T529 95ZM811 95Q811 74 803 55T780 21T746 -2T705 -11Q683 -11 664 -3T631 20T608 54T599 95Q599 117 607 136T630 170T664 193T705 202Q727 202 746 194T779 171T802 137T811 95Z"  />
<glyph unicode="&#x2030;" horiz-adv-x="932" d="M303 422Q303 393 293 368T265 324T220 294T162 283Q130 283 105 294T61 323T33 367T23 422Q23 451 33 476T61 521T104 551T162 562Q194 562 220 551T264 521T293 477T303 422ZM612 130Q612 101 602 76T574 32T530 2T472 -9Q440 -9 415 2T371 31T343 75T333 130Q333 159 343 184T371 229T414 259T472 270Q504 270 530 259T574 229T602 185T612 130ZM171 0H81L463 550H554L171 0ZM202 422Q202 448 191 461T162 474Q147 474 136 461T125 422Q125 396 136 384T162 372Q179 372 190 384T202 422ZM511 130Q511 156 500 168T472 181Q455 181 444 169T433 130Q433 104 444 92T472 80Q489 80 500 92T511 130ZM909 130Q909 101 899 76T871 32T827 2T769 -9Q737 -9 712 2T668 31T640 75T630 130Q630 159 640 184T668 229T711 259T769 270Q801 270 827 259T871 229T899 185T909 130ZM808 130Q808 156 797 168T769 181Q752 181 741 169T730 130Q730 104 741 92T769 80Q786 80 797 92T808 130Z"  />
<glyph unicode="&#x2039;" horiz-adv-x="380" d="M190 63L30 243L190 420H350L190 243L350 63H190Z"  />
<glyph unicode="&#x203A;" horiz-adv-x="380" d="M190 63H30L190 243L30 420H190L350 243L190 63Z"  />
<glyph unicode="&#x20AC;" horiz-adv-x="611" d="M229 292Q228 287 228 283T228 275Q228 270 228 266T229 257H388V200H250Q265 177 289 164T346 151Q382 151 408 172T445 225L602 156Q589 124 567 94T513 41T439 3T346 -12Q289 -12 240 3T153 46T88 113T49 200H12V257H40V275V292H12V349H49Q61 397 87 436T152 504T240 547T346 562Q398 562 439 548T512 511T566 457T602 395L445 324Q434 355 408 377T346 399Q314 399 290 386T249 349H388V292H229Z"  />
<glyph unicode="&#x2122;" horiz-adv-x="454" d="M391 447V629L316 447H308L233 629V447H205V667H248L312 507L376 667H419V447H391ZM107 641V447H79V641H17V667H169V641H107Z"  />


</font>
</defs>
</svg>
